Coordinates
version=1
nRows=10
nColumns=33
inDegrees=yes

Units are S.I. units (second, meters, Newtons, ...)
Angles are in degrees.

endheader
time	ground_thorax_rot_x	ground_thorax_rot_y	ground_thorax_rot_z	ground_thorax_tx	ground_thorax_ty	ground_thorax_tz	clav_prot_r	clav_elev_r	scapula_abduction_r	scapula_elevation_r	scapula_upward_rot_r	scapula_winging_r	shoulder_elv_r	plane_of_elev_r	axial_rot_r	elbow_flexion_r	pro_sup_r	wrist_flex_r	wrist_dev_r	clav_prot_l	clav_elev_l	scapula_abduction_l	scapula_elevation_l	scapula_upward_rot_l	scapula_winging_l	shoulder_elv_l	plane_of_elev_l	axial_rot_l	elbow_flexion_l	pro_sup_l	wrist_flex_l	wrist_dev_l
      8.63000000	    -90.00000000	     90.00000000	    -90.00000000	   -106.79667808	    855.81072492	    -40.75141338	     30.43829954	     34.13633644	     45.00000000	     45.00000000	     15.26233181	   2143.59305934	   2991.13477172	     31.62695743	    -31.94675163	   2518.03553085	    157.38593047	     16.03335761	     14.68709392	    -45.00000000	     21.99789799	     37.27516856	    -17.43288200	     45.00000000	   2625.93552870	  -5453.66410215	    137.26749494	     33.41898097	   1430.27548763	   -319.47951403	     14.21244958	    -21.99816456
      8.64000000	    -90.00000000	     90.00000000	    -90.00000000	   -104.64079940	    855.39892043	    -40.62563212	     30.41272737	     34.18176476	     45.00000000	     45.00000000	     15.06590384	   2143.35434851	   2991.10304639	     31.50115750	    -32.68771689	   2518.00309097	    157.10161140	     15.92331930	     14.77599578	    -45.00000000	     22.09440816	     37.40334370	    -17.48624805	     45.00000000	   2626.03847948	  -5453.65069404	    137.51169679	     34.40142722	   1430.26386101	   -319.14954561	     14.27175650	    -21.91453054
      8.65000000	    -90.00000000	     90.00000000	    -90.00000000	   -102.38898333	    854.94488860	    -40.49429442	     30.38094953	     34.22836281	     45.00000000	     45.00000000	     14.85171790	   2143.12521222	   2991.09286319	     31.34378610	    -33.43291173	   2518.00083707	    156.85057231	     15.78477971	     14.88394290	    -45.00000000	     22.22316949	     37.54222612	    -17.48072316	     45.00000000	   2626.10155418	  -5453.62521229	    137.72520762	     35.45167473	   1430.32425803	   -318.82854117	     14.31450910	    -21.82508368
      8.66000000	    -90.00000000	     90.00000000	    -90.00000000	   -100.05633963	    854.44560593	    -40.35882323	     30.35034255	     34.27866350	     45.00000000	     45.00000000	     14.63859259	   2142.87318945	   2991.05996463	     31.21099501	    -34.20080997	   2517.98363100	    156.62891299	     15.64892286	     14.98204791	    -45.00000000	     22.34516866	     37.67461893	    -17.51295803	     45.00000000	   2626.21858792	  -5453.59946825	    137.92936912	     36.44934137	   1430.36185746	   -318.47081803	     14.36186989	    -21.72104146
      8.67000000	    -90.00000000	     90.00000000	    -90.00000000	    -97.65090048	    853.89620156	    -40.21908954	     30.32069471	     34.33606137	     45.00000000	     45.00000000	     14.44659625	   2142.61138095	   2991.00978584	     31.07355769	    -34.98196036	   2517.95497771	    156.44282501	     15.52109981	     15.07016058	    -45.00000000	     22.40030039	     37.84269857	    -17.56282676	     45.00000000	   2626.24710041	  -5453.70140206	    138.22787669	     37.39667536	   1430.37101687	   -318.10029884	     14.40189392	    -21.59688075
      8.68000000	    -90.00000000	     90.00000000	    -90.00000000	    -95.18490810	    853.29358429	    -40.07443054	     30.28785544	     34.39185303	     45.00000000	     45.00000000	     14.25232682	   2142.32690737	   2990.96872386	     30.94107419	    -35.76640818	   2517.94674601	    156.30651368	     15.37710933	     15.15531409	    -45.00000000	     22.50203623	     38.00853068	    -17.59952059	     45.00000000	   2626.32886125	  -5453.74324295	    138.45762737	     38.34464820	   1430.38297374	   -317.72760983	     14.44292790	    -21.46160173
      8.69000000	    -90.00000000	     90.00000000	    -90.00000000	    -92.66504961	    852.63550142	    -39.92336999	     30.25042599	     34.45016077	     45.00000000	     45.00000000	     14.04516395	   2142.05521933	   2990.91609262	     30.80555303	    -36.54903209	   2517.94310199	    156.22371281	     15.22131920	     15.24454725	    -45.00000000	     22.60543144	     38.15454020	    -17.62080982	     45.00000000	   2626.40574439	  -5453.77106127	    138.68585115	     39.27035665	   1430.41780660	   -317.36376487	     14.48863252	    -21.33052625
      8.70000000	    -90.00000000	     90.00000000	    -90.00000000	    -90.09804479	    851.92234842	    -39.76488467	     30.20290394	     34.51082224	     45.00000000	     45.00000000	     13.81242845	   2141.79517162	   2990.89292257	     30.64225215	    -37.30174504	   2517.98295314	    156.19899488	     15.03173462	     15.35003647	    -45.00000000	     22.74090874	     38.31471320	    -17.60444332	     45.00000000	   2626.49247627	  -5453.73150581	    138.83879019	     40.17975031	   1430.46267046	   -317.01009676	     14.56021816	    -21.21051866
      8.71000000	    -90.00000000	     90.00000000	    -90.00000000	    -87.49017109	    851.15697390	    -39.59763073	     30.15995938	     34.58244078	     45.00000000	     45.00000000	     13.62595242	   2141.48481095	   2990.82405388	     30.52497242	    -38.08380869	   2517.97015868	    156.22225909	     14.86957193	     15.43384052	    -45.00000000	     22.82709890	     38.45824891	    -17.62780763	     45.00000000	   2626.56250552	  -5453.76776202	    139.06007995	     41.04271922	   1430.47797271	   -316.66305389	     14.59955384	    -21.06745484
      8.72000000	    -90.00000000	     90.00000000	    -90.00000000	    -84.84466782	    850.34250389	    -39.42175056	     30.10988866	     34.65314994	     45.00000000	     45.00000000	     13.43607186	   2141.17331635	   2990.76236619	     30.39979334	    -38.85261358	   2517.98363072	    156.29859627	     14.69928148	     15.51551998	    -45.00000000	     22.92931189	     38.61660800	    -17.62544052	     45.00000000	   2626.62864652	  -5453.77116979	    139.24759329	     41.89205856	   1430.49856626	   -316.32767555	     14.64715469	    -20.92095023
